<?xml version="1.0" encoding="iso-8859-1"?>
<!-- Generator: Adobe Illustrator 16.0.0, SVG Export Plug-In . SVG Version: 6.00 Build 0)  -->
<!DOCTYPE svg PUBLIC "-//W3C//DTD SVG 1.1//EN" "http://www.w3.org/Graphics/SVG/1.1/DTD/svg11.dtd">
<svg version="1.1" id="Calque_1" xmlns="http://www.w3.org/2000/svg" xmlns:xlink="http://www.w3.org/1999/xlink" x="0px" y="0px"
	 width="141.732px" height="99.213px" viewBox="59.444 127.893 141.732 99.213"
	 style="enable-background:new 59.444 127.893 141.732 99.213;" xml:space="preserve">
<g id="Logo_plat">
	<path style="fill:#008ECA;" d="M182.746,183.266c-1.41-1.037-3.418-1.209-4.983-0.425c-1.519,0.763-2.491,2.312-3.824,3.333
		c-2.772,2.123-6.317,3.157-9.796,2.895c-3.385-0.258-6.57-1.771-8.963-4.172c-1.141-1.144-2.281-2.287-3.422-3.432
		c-1.784,1.784-4.799,3.913-4.98,6.639c-0.174,2.576,1.787,4.435,3.66,5.875c2.174,1.674,4.68,2.984,7.283,3.842
		c10.205,3.363,21.755-0.619,27.682-9.594c0.273-0.416,0.536-0.842,0.784-1.275c0.101-0.174,0.196-0.35,0.291-0.525
		c-0.267-0.226-0.528-0.453-0.789-0.685C184.727,184.893,183.779,184.023,182.746,183.266
		C181.492,182.343,184.05,184.225,182.746,183.266z"/>
	<circle style="fill:#8C8C88;" cx="76.166" cy="140.934" r="4.961"/>
	<path style="fill:#8C8C88;" d="M76.166,199.042l9.91,0.003c-2.71,0-4.909-2.17-4.949-4.87V155.81c0-2.74-2.223-4.96-4.961-4.96
		c-2.74,0-4.961,2.221-4.961,4.96v38.269C71.205,196.816,73.426,199.042,76.166,199.042z"/>
	<g>
		<path style="fill:#8C8C88;" d="M128.196,191.984c-1.199,1.199-2.5,2.24-3.859,3.141c-9.34,6.12-22,5.07-30.21-3.141
			c-9.41-9.409-9.41-24.66,0-34.069c9.29-9.29,24.279-9.41,33.7-0.351c0.021,0.021,0.04,0.04,0.061,0.05
			c0.109,0.101,0.21,0.2,0.31,0.301c0.101,0.1,0.2,0.199,0.301,0.31c0.021,0.021,0.029,0.04,0.05,0.061
			c1.58,1.949,1.479,4.819-0.34,6.64c-1.939,1.939-5.08,1.939-7.021,0c-2.569-2.561-6.109-4.15-10.021-4.15
			c-7.83,0-14.181,6.351-14.181,14.181c0,7.818,6.351,14.17,14.181,14.17c3.79,0,7.229-1.49,9.779-3.91l27.302-27.3
			c9.408-9.41,24.668-9.41,34.078,0c4.7,4.71,7.062,10.87,7.062,17.029h-0.011c0,2.74-2.221,4.96-4.961,4.96h-5.85l-8.32,0.011
			h-4.959c-2.74,0-4.959-2.23-4.959-4.971c0-1.369,0.56-2.609,1.448-3.51c0.899-0.89,2.142-1.45,3.511-1.45h13.271
			c-2.011-5.38-7.19-9.21-13.271-9.21c-3.92,0-7.459,1.59-10.021,4.15L128.196,191.984z"/>
	</g>
	<g>
		<path style="fill:#008ECA;" d="M75.375,208.702h-2.803c-0.813,0-1.345,0.321-1.345,1.344v7.396c0,1.023,0.532,1.347,1.345,1.347
			h2.761c3.066,0,4.847-1.851,4.847-5.043C80.179,209.794,77.882,208.702,75.375,208.702z M75.458,216.939h-1.934v-6.388h1.919
			c1.682,0,2.438,1.203,2.438,3.193C77.882,215.3,77.293,216.939,75.458,216.939z"/>
		<path style="fill:#008ECA;" d="M89.604,216.939h-4.553v-2.438h3.895c0.603,0,1.078-0.168,1.078-0.883
			c0-0.714-0.477-0.884-1.078-0.884h-3.895v-2.184h4.44c0.673,0,1.162-0.197,1.162-0.926s-0.489-0.924-1.162-0.924h-5.394
			c-0.813,0-1.345,0.322-1.345,1.344v7.396c0,1.022,0.532,1.346,1.345,1.346h5.505c0.672,0,1.162-0.197,1.162-0.926
			C90.765,217.132,90.275,216.939,89.604,216.939z"/>
		<path style="fill:#008ECA;" d="M99.855,208.521c-0.531,0-0.868,0.321-1.079,1.008l-2.156,6.863h-0.027l-2.073-6.863
			c-0.21-0.687-0.546-1.008-1.163-1.008c-0.573,0-1.162,0.252-1.162,1.021c0,0.185,0.042,0.405,0.141,0.674l2.83,7.955
			c0.237,0.658,0.687,0.799,1.399,0.799c0.715,0,1.163-0.141,1.4-0.799l2.914-7.955c0.098-0.269,0.14-0.489,0.14-0.674
			C101.018,208.773,100.43,208.521,99.855,208.521z"/>
		<path style="fill:#008ECA;" d="M109.954,216.939H105.4v-2.438h3.896c0.602,0,1.078-0.168,1.078-0.883
			c0-0.714-0.478-0.884-1.078-0.884H105.4v-2.184h4.44c0.673,0,1.163-0.197,1.163-0.926s-0.49-0.924-1.163-0.924h-5.394
			c-0.813,0-1.345,0.322-1.345,1.344v7.396c0,1.022,0.532,1.346,1.345,1.346h5.506c0.672,0,1.161-0.197,1.161-0.926
			C111.114,217.132,110.625,216.939,109.954,216.939z"/>
		<path style="fill:#008ECA;" d="M119.617,216.855h-3.839v-7.187c0-0.688-0.447-1.147-1.147-1.147s-1.148,0.461-1.148,1.147v7.772
			c0,1.023,0.532,1.347,1.346,1.347h4.79c0.658,0,1.19-0.336,1.19-0.968C120.808,217.189,120.275,216.855,119.617,216.855z"/>
		<path style="fill:#008ECA;" d="M127.529,208.464c-3.306,0-5.099,2.199-5.099,5.154c0,3.055,1.484,5.407,5.099,5.407
			c3.446,0,5.1-2.563,5.1-5.407C132.628,210.663,130.835,208.464,127.529,208.464z M127.529,217.177
			c-2.156,0-2.802-1.625-2.802-3.559c0-1.933,0.925-3.306,2.802-3.306c1.878,0,2.803,1.373,2.803,3.306
			C130.332,215.552,129.617,217.177,127.529,217.177z"/>
		<path style="fill:#008ECA;" d="M140.007,208.702h-3.516c-0.813,0-1.346,0.321-1.346,1.344v7.774c0,0.687,0.447,1.148,1.148,1.148
			s1.147-0.463,1.147-1.148v-2.731h2.55c2.229,0,3.502-1.356,3.502-3.192C143.496,209.654,141.94,208.702,140.007,208.702z
			 M139.587,213.325h-2.145v-2.857h1.905c1.135,0,1.851,0.421,1.851,1.429C141.199,212.766,140.512,213.325,139.587,213.325z"/>
		<path style="fill:#008ECA;" d="M154.951,208.521h-0.645c-0.715,0-1.051,0.278-1.289,1.051l-1.975,6.471h-0.028l-2.003-6.471
			c-0.238-0.771-0.574-1.051-1.289-1.051h-0.672c-0.616,0-1.247,0.209-1.247,1.135v8.193c0,0.573,0.28,1.12,1.022,1.12
			c0.741,0,1.021-0.547,1.021-1.12v-6.246h0.027l2.145,6.694c0.152,0.478,0.504,0.672,0.98,0.672c0.476,0,0.826-0.194,0.979-0.672
			l2.144-6.694h0.027v6.246c0,0.573,0.28,1.12,1.021,1.12c0.742,0,1.022-0.547,1.022-1.12v-8.193
			C156.197,208.73,155.567,208.521,154.951,208.521z"/>
		<path style="fill:#008ECA;" d="M166.027,216.939h-4.553v-2.438h3.895c0.603,0,1.078-0.168,1.078-0.883
			c0-0.714-0.477-0.884-1.078-0.884h-3.895v-2.184h4.439c0.672,0,1.162-0.197,1.162-0.926s-0.49-0.924-1.162-0.924h-5.394
			c-0.812,0-1.345,0.322-1.345,1.344v7.396c0,1.022,0.533,1.346,1.345,1.346h5.506c0.673,0,1.162-0.197,1.162-0.926
			C167.188,217.132,166.699,216.939,166.027,216.939z"/>
		<path style="fill:#008ECA;" d="M177.259,208.521c-0.686,0-1.105,0.362-1.105,1.104v5.981h-0.027l-4.021-6.485
			c-0.252-0.42-0.673-0.603-1.147-0.603c-0.981,0-1.443,0.394-1.443,1.344v7.998c0,0.744,0.42,1.107,1.105,1.107
			c0.687,0,1.106-0.363,1.106-1.107v-5.813h0.028l3.992,6.303c0.293,0.463,0.531,0.617,1.26,0.617c0.968,0,1.359-0.518,1.359-1.43
			v-7.914C178.367,208.884,177.946,208.521,177.259,208.521z"/>
		<path style="fill:#008ECA;" d="M188.225,208.702h-6.64c-0.658,0-1.19,0.336-1.19,0.967s0.532,0.967,1.19,0.967h2.172v7.187
			c0,0.686,0.447,1.147,1.147,1.147s1.148-0.463,1.148-1.147v-7.187h2.171c0.658,0,1.191-0.336,1.191-0.967
			S188.882,208.702,188.225,208.702z"/>
	</g>
</g>
</svg>
