<?xml version="1.0" encoding="iso-8859-1"?>
<!-- Generator: Adobe Illustrator 16.0.0, SVG Export Plug-In . SVG Version: 6.00 Build 0)  -->
<!DOCTYPE svg PUBLIC "-//W3C//DTD SVG 1.1//EN" "http://www.w3.org/Graphics/SVG/1.1/DTD/svg11.dtd">
<svg version="1.1" id="recto" xmlns="http://www.w3.org/2000/svg" xmlns:xlink="http://www.w3.org/1999/xlink" x="0px" y="0px"
	 width="122.572px" height="164.41px" viewBox="0 0 122.572 164.41" style="enable-background:new 0 0 122.572 164.41;"
	 xml:space="preserve">
<g>
	<defs>
		<rect id="SVGID_1_" x="2.581" width="119.991" height="164.41"/>
	</defs>
	<clipPath id="SVGID_2_">
		<use xlink:href="#SVGID_1_"  style="overflow:visible;"/>
	</clipPath>
	<g style="clip-path:url(#SVGID_2_);">
		<g>
			<linearGradient id="SVGID_3_" gradientUnits="userSpaceOnUse" x1="61.2861" y1="62.6318" x2="61.2861" y2="156.6337">
				<stop  offset="0" style="stop-color:#14B1E7"/>
				<stop  offset="1" style="stop-color:#0091D0"/>
			</linearGradient>
			<path style="fill:url(#SVGID_3_);" d="M0,164.41h122.572C77.76,149.051,40.117,115.596,19.459,72.288
				C8.539,49.418,2.979,24.722,2.581,0H0V164.41z"/>
		</g>
		<g>
			<path style="fill:#FFFFFF;" d="M32.065,142.101c-0.724-1.19-2.067-1.931-3.507-1.931c-1.098,0-2.118,0.418-2.869,1.177
				l-1.537,1.547l-1.225-1.225c-0.355-0.356-0.76-0.76-1.313-1.049c-0.582-0.303-1.239-0.462-1.902-0.462
				c-0.479,0-0.946,0.082-1.382,0.24c-1.116,0.399-1.994,1.296-2.409,2.464c-0.422,1.185-0.305,2.453,0.319,3.48
				c0.724,1.191,2.068,1.932,3.507,1.932c1.098,0,2.117-0.418,2.87-1.177l1.536-1.547l1.227,1.227
				c0.355,0.355,0.758,0.758,1.311,1.046c0.582,0.303,1.239,0.463,1.902,0.463c0.479,0,0.945-0.082,1.382-0.241
				c1.116-0.397,1.993-1.295,2.409-2.461C32.805,144.4,32.689,143.13,32.065,142.101z M21.287,145.778
				c-0.397,0.401-0.943,0.623-1.539,0.623c-0.79,0-1.52-0.396-1.905-1.029c-0.33-0.545-0.386-1.23-0.155-1.881
				c0.226-0.635,0.689-1.118,1.279-1.328c0.236-0.085,0.487-0.129,0.746-0.129c0.362,0,0.722,0.088,1.036,0.251
				c0.298,0.153,0.555,0.412,0.854,0.71l1.228,1.229L21.287,145.778z M30.618,144.957c-0.226,0.634-0.688,1.116-1.278,1.325
				c-0.566,0.207-1.241,0.161-1.785-0.121c-0.294-0.154-0.552-0.41-0.848-0.708l-1.231-1.23l1.544-1.556
				c0.397-0.4,0.944-0.621,1.539-0.621c0.788,0,1.519,0.394,1.903,1.028C30.792,143.619,30.85,144.304,30.618,144.957z"/>
			<g>
				<path style="fill:#FFFFFF;" d="M20.59,117.441h-0.396l-0.651-2.398h-0.008l-0.659,2.398h-0.396l-0.731-2.854h0.388l0.561,2.375
					h0.008l0.639-2.375h0.412l0.632,2.375h0.008l0.58-2.375h0.38L20.59,117.441z"/>
				<path style="fill:#FFFFFF;" d="M23.725,114.586h1.971v0.32h-1.591v0.907h1.483v0.319h-1.483v0.987h1.604v0.32h-1.983V114.586z"
					/>
				<path style="fill:#FFFFFF;" d="M28.178,114.586h1.035c0.252,0,0.584,0,0.756,0.104c0.188,0.111,0.336,0.315,0.336,0.595
					c0,0.305-0.16,0.532-0.424,0.64v0.009c0.352,0.071,0.544,0.336,0.544,0.688c0,0.42-0.3,0.819-0.868,0.819h-1.379V114.586z
					 M28.558,115.814h0.76c0.432,0,0.608-0.156,0.608-0.456c0-0.396-0.281-0.451-0.608-0.451h-0.76V115.814z M28.558,117.121h0.952
					c0.327,0,0.535-0.199,0.535-0.512c0-0.371-0.3-0.476-0.619-0.476h-0.868V117.121z"/>
				<path style="fill:#FFFFFF;" d="M18.012,120.586h0.979c0.88,0,1.371,0.439,1.371,1.359c0,0.955-0.42,1.495-1.371,1.495h-0.979
					V120.586z M18.391,123.121h0.632c0.26,0,0.96-0.071,0.96-1.123c0-0.68-0.252-1.091-0.952-1.091h-0.64V123.121z"/>
				<path style="fill:#FFFFFF;" d="M23.429,120.586h1.971v0.32h-1.591v0.907h1.482v0.319h-1.482v0.987h1.604v0.32h-1.983V120.586z"
					/>
				<path style="fill:#FFFFFF;" d="M29.598,123.441h-0.432l-1.008-2.854h0.412l0.814,2.475h0.009l0.823-2.475h0.396L29.598,123.441z
					"/>
				<path style="fill:#FFFFFF;" d="M18.012,126.586h1.343c0.536,0,0.867,0.292,0.867,0.748c0,0.344-0.151,0.627-0.495,0.724v0.008
					c0.332,0.063,0.399,0.308,0.428,0.588c0.023,0.279,0.008,0.591,0.168,0.787h-0.424c-0.108-0.116-0.049-0.424-0.104-0.703
					c-0.04-0.28-0.108-0.517-0.476-0.517h-0.928v1.22h-0.379V126.586z M19.183,127.902c0.355,0,0.659-0.092,0.659-0.508
					c0-0.28-0.152-0.487-0.508-0.487h-0.943v0.995H19.183z"/>
				<path style="fill:#FFFFFF;" d="M23.465,126.586h1.971v0.32h-1.591v0.907h1.483v0.319h-1.483v0.987h1.604v0.32h-1.983V126.586z"
					/>
				<path style="fill:#FFFFFF;" d="M28.623,126.586h1.875v0.32h-1.496v0.907h1.312v0.319h-1.312v1.308h-0.379V126.586z"/>
				<path style="fill:#FFFFFF;" d="M18.012,132.586h0.379v1.228h1.504v-1.228h0.379v2.854h-0.379v-1.308h-1.504v1.308h-0.379
					V132.586z"/>
				<path style="fill:#FFFFFF;" d="M23.316,132.586h1.971v0.32h-1.592v0.907h1.484v0.319h-1.484v0.987h1.604v0.32h-1.982V132.586z"
					/>
				<path style="fill:#FFFFFF;" d="M28.178,132.586h1.035c0.252,0,0.584,0,0.756,0.104c0.188,0.111,0.336,0.315,0.336,0.595
					c0,0.305-0.16,0.532-0.424,0.64v0.009c0.352,0.071,0.544,0.336,0.544,0.688c0,0.42-0.3,0.819-0.868,0.819h-1.379V132.586z
					 M28.558,133.814h0.76c0.432,0,0.608-0.156,0.608-0.456c0-0.396-0.281-0.451-0.608-0.451h-0.76V133.814z M28.558,135.121h0.952
					c0.327,0,0.535-0.199,0.535-0.512c0-0.371-0.3-0.476-0.619-0.476h-0.868V135.121z"/>
			</g>
		</g>
	</g>
</g>
</svg>
